<?xml version="1.0" encoding="utf-8"?>
<!-- Generator: Adobe Illustrator 18.0.0, SVG Export Plug-In . SVG Version: 6.00 Build 0)  -->
<!DOCTYPE svg PUBLIC "-//W3C//DTD SVG 1.1//EN" "http://www.w3.org/Graphics/SVG/1.1/DTD/svg11.dtd">
<svg version="1.1" xmlns="http://www.w3.org/2000/svg" xmlns:xlink="http://www.w3.org/1999/xlink" x="0px" y="0px"
	 viewBox="0 0 792 612" enable-background="new 0 0 792 612" xml:space="preserve">
<g id="Layer_4">
	<linearGradient id="SVGID_1_" gradientUnits="userSpaceOnUse" x1="396.0213" y1="501.4397" x2="396.0213" y2="21.2979">
		<stop  offset="0" style="stop-color:#FFFFFF"/>
		<stop  offset="5.450785e-003" style="stop-color:#FBFBFB"/>
		<stop  offset="8.508837e-002" style="stop-color:#C7C7C7"/>
		<stop  offset="0.17" style="stop-color:#989898"/>
		<stop  offset="0.2583" style="stop-color:#6F6F6F"/>
		<stop  offset="0.3508" style="stop-color:#4D4D4D"/>
		<stop  offset="0.4486" style="stop-color:#313131"/>
		<stop  offset="0.5534" style="stop-color:#1B1B1B"/>
		<stop  offset="0.6689" style="stop-color:#0C0C0C"/>
		<stop  offset="0.803" style="stop-color:#030303"/>
		<stop  offset="1" style="stop-color:#000000"/>
	</linearGradient>
	<rect x="11.3" y="21.3" fill="url(#SVGID_1_)" width="769.5" height="480.1"/>
</g>
<g id="Layer_1">
</g>
<g id="Layer_2">
	<polygon fill="#ADADAD" points="11.9,501.4 11.9,377.3 104.2,377.3 104.2,183 196.6,183 196.6,377.3 224.1,377.3 224.1,112.1 
		274.4,112.1 274.4,377.3 282.8,377.3 282.8,216.3 335.5,216.3 335.5,377.3 421.7,377.3 421.7,149 471.4,149 471.4,377.3 
		485.9,377.3 485.9,62.4 538.5,62.4 538.5,377.3 559.1,377.3 559.1,166.7 659.9,166.7 659.9,377.3 782,377.3 782,501.4 	"/>
	<polygon fill="#4A4A4A" points="780.9,454.2 12.8,454.2 12.8,377.6 88.5,377.6 88.5,252.1 252.3,252.1 252.3,291.4 442.4,291.4 
		442.4,340.9 518.2,340.9 518.2,269.6 752.3,269.6 752.3,377.6 780.9,377.6 	"/>
	<polygon fill="#1D1D1D" points="12.5,470.2 780.6,470.2 780.6,451.4 743,451.4 743,322 618.3,322 618.3,451.4 573,451.4 573,322 
		432,322 432,451.4 386.7,451.4 386.7,322 251.8,322 251.8,451.4 204.8,451.4 204.8,322 63.8,322 63.5,450.7 12.5,451.4 12.5,451.4 
			"/>
	<g>
		<path fill="#F9EF5C" stroke="#F9EF5C" stroke-width="3" stroke-miterlimit="10" d="M702.9,339.5c0,0-3.6-6.3-14.6-7.5
			c-3.6-9-15.2-10.2-15.2-10.2s-7.8-10.7-16.9-9.8c-3.9-7.2-13.2-8.5-13.2-8.5s-4.5-8.4-12.9-9c0,0,27.8-27.8,55.4-12.8
			c0.2,0.1,0.3,0.2,0.5,0.3C713.6,297.7,702.9,339.5,702.9,339.5z"/>
		<path fill="none" stroke="#F9EF5C" stroke-width="3" stroke-miterlimit="10" d="M669.2,310.4c0,0-18.9,38.4-22,42.7
			s-9.3,5.5-6.8-5"/>
	</g>
	<path fill="#010101" stroke="#010101" stroke-miterlimit="10" d="M674.2,326.8c-1.8-4.2-9.1-12.4-16.8-4.1c-2.9,3.8-2.2,6-2.9,7.4
		c-0.7,1.4-1.1,1.6-2,2.3s-0.3,0.8,0,1.1c0.3,0.3,0.5,0.5,0.9,0.9c0.4,0.4,0.5,1.1,0.5,1.1s0.1,0.3,0,1.1s0.1,1.2,0.1,1.2
		s0,1.6,0.1,2.2c0.1,0.7,0.7,1.2,1.2,1.4c0.5,0.2,2.4,0.4,3.4,0.4c0,0,1.5,3.5,0.7,6c-0.8,2.5-2.4,5.1-2.4,5.1l-4.4,5.7l-3.4,4.5
		c0,0-0.8-3.4-0.8-5.2c0-1.8,0.8-3.4,0.8-3.4s1.9-3,2.2-3.7c0.2-0.7,0.2-1.3,0.1-1.6c0-0.3,0.1-1-0.1-1.2c-0.2-0.2-1,0.2-1,0.2
		s-0.1-0.4-0.2-1.4c-0.1-1.1-0.6-2-1.4-1c-0.8,1-1.9,1.6-2.2,2c-0.4,0.4-2.2,1.4-2.4,2.4c-0.2,0.9,0.2,1.4,0.3,1.7
		c0.1,0.3,2,3.3,1.5,6.2c-0.5,2.9-0.6,5.4-0.7,6.2c0,0.8-0.8,11.2-0.5,12.8c0.3,1.6,0.8,3,1.1,3.5c0.4,0.5,1,1.8,2.2,1.3
		s5.8-6.8,5.8-6.8s1.3,4.2,1.1,6.3c-0.2,2.1-5.6,11.8-6.9,15.1s-8.9,24-11.4,28.1c-2.5,4.1-3.5,7.4-7.4,12.4c4.4-2.8,8.9-1,10.5-1.3
		c-0.4,1.8-1.6,7.1-2.5,10c-0.9,2.9-8.5,21.6-13.1,28.2s-7.3,10.1-8.6,12.4c-1.3,2.2-8.3,7.2-9.8,7.6c-1.5,0.5-0.7,1,0,1.2
		c0.7,0.2,4.1,0,5.9-0.6c1.8-0.6,5.3-1.2,7.7-2.6c2.4-1.4,5.3-0.8,5.3-0.8c2-1.6,1.7-2.9,1.7-3.9s-1.4-4.2-1.2-5.6
		c0.1-1.4,0.6-3.5,3-5.5s7.9-11.8,12.7-17.8c4.8-6,5.2-12.7,5.6-14.1c0.4-1.3,4-8,4-8c9.3,5.3,15.9,6.4,15.9,6.4
		c5.5,7.8,17.4,19.8,19.3,21.7c1.9,1.9,6.5,7.6,7,8.7c0.6,1.2,2.2,4.4,2.5,5.4c0,0,1.1,2.8,1.2,5.3s-1.4,4.5-2.5,5.2
		s-2.5,2.1-1.8,2.6s1,0.4,2.6,0.1s3.7-0.6,4.6-1.6c0.9-1,1.7-3.7,2-5.1c0.2-1.5,3.8-7.3,3.8-7.3c-0.6-3.4-1.5-3.2-2.7-3.9
		c-4.5-2.4-5-3.6-6.5-5.5c-1.5-2-6-9-8.2-13.9c-2.2-5-6.4-11-9.1-12.7c12.2-2.1,16.1-5.1,16.1-5.1c-17-18.2-17.7-38.3-20.9-42.8
		c-3.3-4.4-2.9-5.3-3.6-7.8s-0.7-4.8,0.3-6.9c1.1-2.1,3.1-6.6,3.8-7.6c0.7-1,2.9-2.4,2.9-2.4s-0.4,2.7-4.5,6.7
		c6.7-1.8,8.3-12.9,8.3-12.9s1.1,3-1.6,9.3c4.6-3.6,5.7-11.3,5.7-11.3s1.4,3.7-0.1,7.2c3.6-2.6,3-6.5,2.6-7.4
		c1.9-4.7-1.8-6.6-3.2-7.2c-1.3-0.6-5.6-1.7-7.4-11.4C675.5,334,676.8,332.3,674.2,326.8z"/>
</g>
<g id="Layer_3">
</g>
</svg>
